<svg class="animated" id="freepik_stories-504-error-gateway-timeout" xmlns="http://www.w3.org/2000/svg" viewBox="0 0 500 500" version="1.1"><style>@keyframes floating{0%,to{opacity:1;transform:translateY(0)}50%{transform:translateY(-10px)}}@keyframes heartbeat{0%,30%,40%,60%,to{transform:scale(1)}10%,50%{transform:scale(1.1)}}@keyframes wind{0%{transform:rotate(0deg)}25%{transform:rotate(1deg)}75%{transform:rotate(-1deg)}}@keyframes slideLeft{0%{opacity:0;transform:translateX(-30px)}to{opacity:1;transform:translateX(0)}}svg#freepik_stories-504-error-gateway-timeout:not(.animated) .animable{opacity:0}</style><g id="freepik--background-simple--inject-184" class="animable" style="transform-origin:262.28px 236.785px;animation:1.5s Infinite linear floating;animation-delay:0s"><path d="M57.12 297.86s7.08 61.73 59.54 88.1 103.84.72 151-5.46c24.7-3.24 47.61 8.91 71.84 11.45 77.45 8.13 138.24-83.14 127.33-150.28-9.44-58.13-46.58-99.15-114.26-128.43s-114.23-52.56-192.84-25S51.52 217.94 57.12 297.86Z" style="fill:#c53f3f;transform-origin:262.28px 236.785px" id="elbw3etc5szdo" class="animable"/><path d="M57.12 297.86s7.08 61.73 59.54 88.1 103.84.72 151-5.46c24.7-3.24 47.61 8.91 71.84 11.45 77.45 8.13 138.24-83.14 127.33-150.28-9.44-58.13-46.58-99.15-114.26-128.43s-114.23-52.56-192.84-25S51.52 217.94 57.12 297.86Z" style="fill:#fff;opacity:.8;transform-origin:262.28px 236.785px" class="animable" id="elx7ginmr0ub"/></g><g id="freepik--Clock--inject-184" class="animable" style="transform-origin:264.91px 175.91px;animation:1.5s Infinite linear heartbeat;animation-delay:0s"><circle cx="264.91" cy="175.91" r="44.08" style="fill:none;stroke:#263238;stroke-linecap:round;stroke-linejoin:round;stroke-width:1.17749px;transform-origin:264.91px 175.91px;transform:rotate(-5.71059deg)" class="animable" id="el33qegkn4jg8"/><circle cx="264.91" cy="175.91" r="36.53" style="fill:none;stroke:#263238;stroke-linecap:round;stroke-linejoin:round;stroke-width:1.17749px;transform-origin:264.91px 175.91px;transform:rotate(-9.13deg)" class="animable" id="elfb7ctu7h15q"/><path style="fill:none;stroke:#263238;stroke-linecap:round;stroke-linejoin:round;stroke-width:1.17749px;transform-origin:253.26px 192.72px" id="el5wzu05xfq34" class="animable" d="M241.61 175.91h23.3v33.62"/></g><g id="freepik--Plants--inject-184" class="animable animator-active" style="transform-origin:75.4496px 262.97px;animation:1.5s Infinite linear wind;animation-delay:0s"><path d="M98.65 152.47s0-5.91-8.28-14.19-13.59-13-13.59-13-4.14 13.59 3.54 21.87a145.27 145.27 0 0 0 18.33 16Z" style="fill:#c53f3f;transform-origin:87.1579px 144.215px" id="el0g3me0j624e5" class="animable"/><path d="M86.64 189.39s0-5.91-8.28-14.19-13.59-13-13.59-13-4.14 13.59 3.54 21.87a146.21 146.21 0 0 0 18.33 16Z" style="fill:#c53f3f;transform-origin:75.1479px 181.135px" id="elrvkexg99ne" class="animable"/><path d="M98.13 162.54s.62-5.88 9.73-13.24 14.89-11.49 14.89-11.49 2.68 14-5.84 21.37A145 145 0 0 1 97 173.12Z" style="fill:#c53f3f;transform-origin:110.075px 155.465px" id="elejvn3fw273p" class="animable"/><path d="M83.62 206.14s1.24-5.78 11.06-12.14 16-9.87 16-9.87 1.2 14.16-8 20.65a145.39 145.39 0 0 1-21.26 11.76Z" style="fill:#c53f3f;transform-origin:96.0757px 200.335px" id="el2poo4mh84j" class="animable"/><path d="M86.35 253.67s0-5.91 8.27-14.18 13.6-13 13.6-13 4.14 13.6-3.55 21.87a144.76 144.76 0 0 1-18.32 16Z" style="fill:#c53f3f;transform-origin:97.8414px 245.425px" id="elrz7oetu9m1k" class="animable"/><path d="M86.21 265.28s.84-5.85-6.18-15.22-11.61-14.81-11.61-14.81-6 12.87.41 22.16a145.57 145.57 0 0 0 15.87 18.4Z" style="fill:#c53f3f;transform-origin:76.0561px 255.53px" id="els8z4kcky6v" class="animable"/><path d="M78.05 299.66s0-5.91 8.27-14.18 13.6-13 13.6-13 4.14 13.6-3.55 21.87a144.76 144.76 0 0 1-18.32 16Z" style="fill:#c53f3f;transform-origin:89.5414px 291.415px" id="elglo2itteht" class="animable"/><path d="M83.57 330.84S82.08 325.12 88 315s9.86-16 9.86-16 7.44 12.11 2.11 22.06a145.52 145.52 0 0 1-13.69 20.08Z" style="fill:#c53f3f;transform-origin:92.6481px 320.07px" id="elxbaupte2ef" class="animable"/><path d="M99.4 151a168.79 168.79 0 0 1-2.27 18.35c-3.27 16.9-11.45 27.81-14.72 43.07s6.12 34.94 3.61 54.55-10.15 30.51-8 43.6 13.63 48.52 13.63 48.52" style="fill:none;stroke:#263238;stroke-linecap:round;stroke-linejoin:round;stroke-width:1.17749px;transform-origin:88.5216px 255.045px" id="el8joyhs0nm6" class="animable"/><path style="fill:none;stroke:#263238;stroke-linecap:round;stroke-linejoin:round;stroke-width:1.17749px;transform-origin:102.51px 163.045px" id="el1khnceh637d" class="animable" d="m98.05 166.47 8.92-6.85"/><path style="fill:none;stroke:#263238;stroke-linecap:round;stroke-linejoin:round;stroke-width:1.17749px;transform-origin:96.595px 155.27px" id="el6hpsum7xzrc" class="animable" d="m98.46 158.59-3.73-6.64"/><path d="M82.91 211.68s7.46-5.6 15.14-11.2" style="fill:none;stroke:#263238;stroke-linecap:round;stroke-linejoin:round;stroke-width:1.17749px;transform-origin:90.48px 206.08px" id="elzfs40j0mh1m" class="animable"/><path d="M86.64 200s-6.22-12.2-13.27-20.29" style="fill:none;stroke:#263238;stroke-linecap:round;stroke-linejoin:round;stroke-width:1.17749px;transform-origin:80.005px 189.855px" id="elurd9h88knv" class="animable"/><path d="M86.64 262.08a92.6 92.6 0 0 1 16-21.36" style="fill:none;stroke:#263238;stroke-linecap:round;stroke-linejoin:round;stroke-width:1.17749px;transform-origin:94.64px 251.4px" id="elzhfgfbsbqg" class="animable"/><path d="M85.19 270.38A105.09 105.09 0 0 0 77.1 255c-4.36-6.43-5-7.26-5-7.26" style="fill:none;stroke:#263238;stroke-linecap:round;stroke-linejoin:round;stroke-width:1.17749px;transform-origin:78.645px 259.06px" id="elxiluhkvu6za" class="animable"/><path d="M78.05 310.53a99.05 99.05 0 0 1 6.72-13.6 87.45 87.45 0 0 1 8.71-11.41" style="fill:none;stroke:#263238;stroke-linecap:round;stroke-linejoin:round;stroke-width:1.17749px;transform-origin:85.765px 298.025px" id="elgco5cub5q37" class="animable"/><path d="M86.27 341.13s-.87-7.08 2.24-13.09 6.63-13.9 8.09-17" style="fill:none;stroke:#263238;stroke-linecap:round;stroke-linejoin:round;stroke-width:1.17749px;transform-origin:91.379px 326.085px" id="elgxqjg3evqjg" class="animable"/><path d="M44.46 231.44s-.65-3.7 3.65-9.79 7.11-9.65 7.11-9.65 4.07 8.07.15 14.1a92.39 92.39 0 0 1-9.76 12Z" style="fill:#c53f3f;transform-origin:50.7496px 225.05px" id="el427ycjlt24f" class="animable"/><path d="M56 253.29s-.65-3.71 3.64-9.8 7.12-9.63 7.12-9.63 4.07 8.08.15 14.1a92.06 92.06 0 0 1-9.76 12Z" style="fill:#c53f3f;transform-origin:62.2895px 246.91px" id="elz0rtmpa5mgk" class="animable"/><path d="M45.88 237.7s-1-3.62-7.54-7.24-10.59-5.6-10.59-5.6-.16 9 6 12.78a93.1 93.1 0 0 0 14 6.57Z" style="fill:#c53f3f;transform-origin:37.7498px 234.535px" id="elyrxytdi2ta" class="animable"/><path d="M59.71 263.46s-1.41-3.49-8.26-6.41-11.12-4.44-11.12-4.44.79 9 7.29 12.07a92.86 92.86 0 0 0 14.61 5.07Z" style="fill:#c53f3f;transform-origin:51.28px 261.18px" id="el4xsgptda00x" class="animable"/><path d="M63.16 293.57s-.64-3.71-6.73-8-9.94-6.68-9.94-6.68-1.12 9 4.6 13.33a92.32 92.32 0 0 0 13.22 8Z" style="fill:#c53f3f;transform-origin:55.3557px 289.555px" id="elvwqu72xlkjd" class="animable"/><path d="M64.5 300.83s-1.16-3.58 2.22-10.21 5.68-10.55 5.68-10.55 5.17 7.42 2.15 13.94a92.73 92.73 0 0 1-8 13.26Z" style="fill:#c53f3f;transform-origin:69.9023px 293.67px" id="elg1dib12xpno" class="animable"/><path d="M74.89 330.73s.43-3.74 6.26-8.37 9.54-7.23 9.54-7.23 1.63 8.89-3.83 13.57a93.1 93.1 0 0 1-12.74 8.76Z" style="fill:#c53f3f;transform-origin:82.5189px 326.295px" id="el29jkw8z26sy" class="animable"/><path d="M73.35 321.51s-.64-3.71-6.73-8-9.93-6.68-9.93-6.68-1.12 9 4.59 13.33a92.15 92.15 0 0 0 13.23 8Z" style="fill:#c53f3f;transform-origin:65.5555px 317.495px" id="el1u64eql3h43i" class="animable"/><path d="M73.27 341.66s.32-3.75-4.48-9.44-7.92-9-7.92-9-3.36 8.4 1.07 14.06a93 93 0 0 0 10.76 11.13Z" style="fill:#c53f3f;transform-origin:66.462px 335.815px" id="el3pqbvumnxuo" class="animable"/><path d="M43.82 230.57a106.66 106.66 0 0 0 3.42 11.27c3.88 10.24 10.19 16.19 13.9 25.41s0 22.57 3.66 34.59 9.68 18 9.73 26.48-3.28 31.91-3.28 31.91" style="fill:none;stroke:#263238;stroke-linecap:round;stroke-linejoin:round;stroke-width:1.17749px;transform-origin:59.1753px 295.4px" id="eltg2wi65izm" class="animable"/><path style="fill:none;stroke:#263238;stroke-linecap:round;stroke-linejoin:round;stroke-width:1.17749px;transform-origin:43.185px 238.49px" id="elr6fzul514xg" class="animable" d="m46.35 240.15-6.33-3.32"/><path style="fill:none;stroke:#263238;stroke-linecap:round;stroke-linejoin:round;stroke-width:1.17749px;transform-origin:46.05px 232.975px" id="eljope1duivzp" class="animable" d="m45.24 235.26 1.62-4.57"/><path d="M60.76 266.86s-5.29-2.7-10.71-5.38" style="fill:none;stroke:#263238;stroke-linecap:round;stroke-linejoin:round;stroke-width:1.17749px;transform-origin:55.405px 264.17px" id="eljmqr7twvmy" class="animable"/><path d="M57.15 260a76.07 76.07 0 0 1 6.12-14.16" style="fill:none;stroke:#263238;stroke-linecap:round;stroke-linejoin:round;stroke-width:1.17749px;transform-origin:60.21px 252.92px" id="elh7c77842pji" class="animable"/><path d="M63.89 298.87a58.77 58.77 0 0 0-12.34-11.66" style="fill:none;stroke:#263238;stroke-linecap:round;stroke-linejoin:round;stroke-width:1.17749px;transform-origin:57.72px 293.04px" id="elmnnaimpqft" class="animable"/><path d="M65.7 303.92a66.35 66.35 0 0 1 3.4-10.5c2-4.51 2.34-5.1 2.34-5.1" style="fill:none;stroke:#263238;stroke-linecap:round;stroke-linejoin:round;stroke-width:1.17749px;transform-origin:68.57px 296.12px" id="elh5hpj688d94" class="animable"/><path d="M74.25 334.72s4.19-5.14 6.81-7.07a36.72 36.72 0 0 0 4.42-3.85" style="fill:none;stroke:#263238;stroke-linecap:round;stroke-linejoin:round;stroke-width:1.17749px;transform-origin:79.865px 329.26px" id="eljsif5x6aid" class="animable"/><path d="M74.53 328.32a63.67 63.67 0 0 0-5.69-7.8 55.83 55.83 0 0 0-6.7-6.21" style="fill:none;stroke:#263238;stroke-linecap:round;stroke-linejoin:round;stroke-width:1.17749px;transform-origin:68.335px 321.315px" id="elpxc8ckxq9de" class="animable"/><path d="M72.7 348.41a16.13 16.13 0 0 0-2.82-8c-2.61-3.44-5.68-8-6.92-9.79" style="fill:none;stroke:#263238;stroke-linecap:round;stroke-linejoin:round;stroke-width:1.17749px;transform-origin:67.83px 339.515px" id="el90mymg4e44k" class="animable"/><path d="M100.26 400.66H62.57a2.81 2.81 0 0 1-2.81-2.81l-5.41-41.71h54.13l-5.41 41.71a2.81 2.81 0 0 1-2.81 2.81Z" style="fill:#263238;transform-origin:81.415px 378.4px" id="elrs47ciceh6" class="animable"/><path d="M108 363.2H54.35a4.24 4.24 0 0 1-4.24-4.2 4.23 4.23 0 0 1 4.24-4.23H108a4.23 4.23 0 0 1 4.24 4.23 4.24 4.24 0 0 1-4.24 4.2Z" style="fill:#263238;transform-origin:81.175px 358.985px" id="elpj454tx6z4a" class="animable"/></g><g id="freepik--Device--inject-184" class="animable" style="transform-origin:339.17px 326.385px"><path d="m382 366 16.6 26.74a5.12 5.12 0 0 1-4.35 7.82h-33.9a5.12 5.12 0 0 0 4.35-7.8l-16.06-26.16Z" style="fill:#fff;stroke:#263238;stroke-linecap:round;stroke-linejoin:round;stroke-width:1.17749px;transform-origin:374.005px 383.28px" id="el5olmjfj8zts" class="animable"/><path style="fill:#263238;stroke:#263238;stroke-linecap:round;stroke-linejoin:round;stroke-width:1.17749px;transform-origin:368.635px 371.31px" id="el9wzh6qmsfkl" class="animable" d="m382.01 365.98-33.36.6 6.18 10.06h33.79l-6.61-10.66z"/><rect x="290.27" y="252.2" width="141.78" height="119.74" rx="2.91" style="fill:#fff;stroke:#263238;stroke-linecap:round;stroke-linejoin:round;stroke-width:1.17749px;transform-origin:361.16px 312.07px;transform:rotate(180deg)" class="animable" id="elvg38y3elw0m"/><rect x="284.91" y="252.2" width="141.78" height="119.74" rx="2.91" style="fill:#fff;stroke:#263238;stroke-linecap:round;stroke-linejoin:round;stroke-width:1.17749px;transform-origin:355.8px 312.07px;transform:rotate(180deg)" class="animable" id="elzjcqchq4vc"/><path d="M289.67 252.2h132.25a4.76 4.76 0 0 1 4.77 4.76v93.53H284.91V257a4.76 4.76 0 0 1 4.76-4.8Z" style="fill:#263238;stroke:#263238;stroke-linecap:round;stroke-linejoin:round;stroke-width:1.17749px;transform-origin:355.8px 301.345px" id="el3x9wcllrj3p" class="animable"/><path style="fill:#fff;stroke:#263238;stroke-linecap:round;stroke-linejoin:round;stroke-width:1.17749px;transform-origin:355.795px 300.45px;transform:rotate(180deg)" class="animable" d="M290.86 256.96h129.87v86.98H290.86z" id="el8nlrg9zpd9x"/><path style="fill:#fff;stroke:#263238;stroke-linecap:round;stroke-linejoin:round;stroke-width:1.17749px;transform-origin:250.48px 395.235px" id="el2875ntal1h5" class="animable" d="M248.42 394.55h4.12v1.37h-4.12z"/><path style="fill:#fff;stroke:#263238;stroke-linecap:round;stroke-linejoin:round;stroke-width:1.17749px;transform-origin:255.98px 395.235px" id="ell9lpmsdosw" class="animable" d="M253.92 394.55h4.12v1.37h-4.12z"/><path style="fill:#fff;stroke:#263238;stroke-linecap:round;stroke-linejoin:round;stroke-width:1.17749px;transform-origin:261.48px 395.235px" id="elx8b3khctl7r" class="animable" d="M259.42 394.55h4.12v1.37h-4.12z"/><path style="fill:#fff;stroke:#263238;stroke-linecap:round;stroke-linejoin:round;stroke-width:1.17749px;transform-origin:266.98px 395.235px" id="elwfx1i2h8mx" class="animable" d="M264.92 394.55h4.12v1.37h-4.12z"/><path style="fill:#fff;stroke:#263238;stroke-linecap:round;stroke-linejoin:round;stroke-width:1.17749px;transform-origin:272.48px 395.235px" id="elv0n4sn8k6gr" class="animable" d="M270.42 394.55h4.12v1.37h-4.12z"/><path style="fill:#fff;stroke:#263238;stroke-linecap:round;stroke-linejoin:round;stroke-width:1.17749px;transform-origin:277.98px 395.235px" id="elp0nu1659y3" class="animable" d="M275.92 394.55h4.12v1.37h-4.12z"/><path style="fill:#fff;stroke:#263238;stroke-linecap:round;stroke-linejoin:round;stroke-width:1.17749px;transform-origin:283.48px 395.235px" id="elk2mrgx9mz1" class="animable" d="M281.42 394.55h4.12v1.37h-4.12z"/><path style="fill:#fff;stroke:#263238;stroke-linecap:round;stroke-linejoin:round;stroke-width:1.17749px;transform-origin:288.98px 395.235px" id="elx5lu3eotulc" class="animable" d="M286.92 394.55h4.12v1.37h-4.12z"/><path style="fill:#fff;stroke:#263238;stroke-linecap:round;stroke-linejoin:round;stroke-width:1.17749px;transform-origin:294.48px 395.235px" id="elfvfjw8alfjv" class="animable" d="M292.42 394.55h4.12v1.37h-4.12z"/><path style="fill:#fff;stroke:#263238;stroke-linecap:round;stroke-linejoin:round;stroke-width:1.17749px;transform-origin:299.98px 395.235px" id="elrn38fbuboh" class="animable" d="M297.92 394.55h4.12v1.37h-4.12z"/><path style="fill:#fff;stroke:#263238;stroke-linecap:round;stroke-linejoin:round;stroke-width:1.17749px;transform-origin:305.48px 395.235px" id="el8e6a0c1ah52" class="animable" d="M303.42 394.55h4.12v1.37h-4.12z"/><path style="fill:#fff;stroke:#263238;stroke-linecap:round;stroke-linejoin:round;stroke-width:1.17749px;transform-origin:310.98px 395.235px" id="elg63fry2h1gu" class="animable" d="M308.92 394.55h4.12v1.37h-4.12z"/><path style="fill:#fff;stroke:#263238;stroke-linecap:round;stroke-linejoin:round;stroke-width:1.17749px;transform-origin:316.48px 395.235px" id="elgmguuiixlmk" class="animable" d="M314.42 394.55h4.12v1.37h-4.12z"/><path style="fill:#fff;stroke:#263238;stroke-linecap:round;stroke-linejoin:round;stroke-width:1.17749px;transform-origin:321.97px 395.235px" id="el5d7jnat5fgm" class="animable" d="M319.91 394.55h4.12v1.37h-4.12z"/><path style="fill:#fff;stroke:#263238;stroke-linecap:round;stroke-linejoin:round;stroke-width:1.17749px;transform-origin:327.47px 395.235px" id="el9njsftl1tne" class="animable" d="M325.41 394.55h4.12v1.37h-4.12z"/><path style="fill:#fff;stroke:#263238;stroke-linecap:round;stroke-linejoin:round;stroke-width:1.17749px;transform-origin:332.97px 395.235px" id="elw7gbwu7iymd" class="animable" d="M330.91 394.55h4.12v1.37h-4.12z"/><path style="fill:#fff;stroke:#263238;stroke-linecap:round;stroke-linejoin:round;stroke-width:1.17749px;transform-origin:338.47px 395.235px" id="ellh4ny7apjmb" class="animable" d="M336.41 394.55h4.12v1.37h-4.12z"/><path style="fill:#fff;stroke:#263238;stroke-linecap:round;stroke-linejoin:round;stroke-width:1.17749px;transform-origin:343.97px 395.235px" id="elpbp37l7uqch" class="animable" d="M341.91 394.55h4.12v1.37h-4.12z"/><path style="fill:#fff;stroke:#263238;stroke-linecap:round;stroke-linejoin:round;stroke-width:1.17749px;transform-origin:349.47px 395.235px" id="el70kn0lbo2yk" class="animable" d="M347.41 394.55h4.12v1.37h-4.12z"/><path style="fill:#fff;stroke:#263238;stroke-linecap:round;stroke-linejoin:round;stroke-width:1.17749px;transform-origin:354.97px 395.235px" id="els9gci283gdp" class="animable" d="M352.91 394.55h4.12v1.37h-4.12z"/><path style="fill:#fff;stroke:#263238;stroke-linecap:round;stroke-linejoin:round;stroke-width:1.17749px;transform-origin:360.47px 395.235px" id="el7ek0skauvqv" class="animable" d="M358.41 394.55h4.12v1.37h-4.12z"/><path style="fill:#fff;stroke:#263238;stroke-linecap:round;stroke-linejoin:round;stroke-width:1.17749px;transform-origin:305.915px 398.345px" id="elvkof4y9wikf" class="animable" d="M246.29 396.12h119.25v4.45H246.29z"/><path style="fill:#263238;stroke:#263238;stroke-linecap:round;stroke-linejoin:round;stroke-width:1.17749px;transform-origin:350.995px 398.345px" id="el0igfy3hbdl8p" class="animable" d="M336.45 396.12h29.09v4.45h-29.09z"/></g><g id="freepik--Character--inject-184" class="animable" style="transform-origin:241.97px 294.91px;animation:1s 1 forwards cubic-bezier(.36,-.01,.5,1.38) slideLeft,1.5s Infinite linear wind;animation-delay:0s,1s"><path d="M192.55 247.65s5.11-8.83 7-5.11 1.4 11.61-1.39 15.33-3.72 5.57-5.11 2.78-.5-13-.5-13Z" style="fill:#fff;stroke:#263238;stroke-linecap:round;stroke-linejoin:round;stroke-width:1.17749px;transform-origin:196.475px 251.811px" id="ela0bi0or2jh" class="animable"/><path d="M131.7 254.61s-6-7.43-7.44-2.32 5.58 11.61 7.44 12.54a9 9 0 0 0 4.64.47Z" style="fill:#fff;stroke:#263238;stroke-linecap:round;stroke-linejoin:round;stroke-width:1.17749px;transform-origin:130.203px 257.956px" id="elvotpchv5acm" class="animable"/><path d="M153.94 286.51S88.65 306.29 88.65 310s-1.87 76.86-.38 81 13.81 8.2 20.53 8.2v1.5h143.27L245 361.14s40.3-1.5 41-4.48-35.35-62.66-38.71-64.54-54.54-7.47-60.51-7.47-18.66-2.65-32.84 1.86Z" style="fill:#c53f3f;transform-origin:186.852px 342.288px" id="elp36c5v4hi6q" class="animable"/><g style="clip-path:url(#freepik--clip-path--inject-184);transform-origin:167.87px 340.845px" id="elxft7wv4oml" class="animable"><path d="M212.33 400.69c-90.47-33.25-86.43-50.19-86.43-50.19l-30 45.85a39 39 0 0 0 12.92 2.84v1.5Z" style="opacity:.3;transform-origin:154.115px 375.595px" class="animable" id="elv6zwf2w131s"/><path d="M188.93 304.44s30.71-1.62 50.91-16.16L183.28 281Z" style="opacity:.3;transform-origin:211.56px 292.72px" class="animable" id="el09ou03r2siwt"/></g><path d="M153.94 286.51S88.65 306.29 88.65 310s-1.87 76.86-.38 81 13.81 8.2 20.53 8.2v1.5h143.27L245 361.14s40.3-1.5 41-4.48-35.35-62.66-38.71-64.54-54.54-7.47-60.51-7.47-18.66-2.65-32.84 1.86Z" style="fill:none;stroke:#263238;stroke-linecap:round;stroke-linejoin:round;stroke-width:1.17749px;transform-origin:186.852px 342.288px" id="elrgf484ijdyg" class="animable"/><path style="fill:none;stroke:#263238;stroke-linecap:round;stroke-linejoin:round;stroke-width:1.17749px;transform-origin:238.37px 326.715px" id="elvifq9kinxrp" class="animable" d="m243.72 342.76-10.7-32.09"/><path d="M101.08 311.38s17.83 10 23.54 33.52" style="fill:none;stroke:#263238;stroke-linecap:round;stroke-linejoin:round;stroke-width:1.17749px;transform-origin:112.85px 328.14px" id="elqci6divkxg" class="animable"/><path d="M101 355.91s-11.94 7.84-14.55 9.7-3.36 21.65-.75 27.24 13.81 8.21 21.27 4.48 10.82-21.27 8.21-30.22-14.18-11.2-14.18-11.2Z" style="fill:#263238;stroke:#263238;stroke-linecap:round;stroke-linejoin:round;stroke-width:1.17749px;transform-origin:100.067px 377.49px" id="el6omjtkwugno" class="animable"/><path d="M144.62 290.24s1.12 17.91 4.47 29.85 9.7 27.61 9.7 27.61l21.27-16.79 28.73 7.09s-5.59-29.47-9.7-39.17-12.31-17.54-12.31-17.54-31.34-4.11-42.16 8.95Z" style="fill:#263238;stroke:#263238;stroke-linecap:round;stroke-linejoin:round;stroke-width:1.17749px;transform-origin:176.705px 314.188px" id="el60zvxsudmyc" class="animable"/><path d="M148.72 287.26s5.22 13.06 10.82 24.25 19 26.87 22.39 23.51 6.71-29.48 6.71-35.45v-17.91s-10.44 8.58-18.65 8.58-21.27-2.98-21.27-2.98Z" style="fill:#fff;transform-origin:168.68px 308.571px" id="eljkirqacs379" class="animable"/><g style="clip-path:url(#freepik--clip-path-2--inject-184);transform-origin:168.68px 294.311px" id="el15zlb3zco5s" class="animable"><path d="M188.64 281.66s-10.44 8.58-18.65 8.58-21.27-3-21.27-3 2.65 6.63 6.2 14.49a31.19 31.19 0 0 0 21.83 4.9c4.68-.74 8.6-3.29 11.89-6.81v-18.16Z" style="fill:#c53f3f;transform-origin:168.68px 294.311px" id="elab40tm0565f" class="animable"/><path d="M188.64 281.66s-10.44 8.58-18.65 8.58-21.27-3-21.27-3 2.65 6.63 6.2 14.49a31.19 31.19 0 0 0 21.83 4.9c4.68-.74 8.6-3.29 11.89-6.81v-18.16Z" style="fill:#fff;opacity:.7;transform-origin:168.68px 294.311px" class="animable" id="el6pvxuyizif4"/></g><path d="M148.72 287.26s5.22 13.06 10.82 24.25 19 26.87 22.39 23.51 6.71-29.48 6.71-35.45v-17.91s-10.44 8.58-18.65 8.58-21.27-2.98-21.27-2.98Z" style="fill:none;stroke:#263238;stroke-linecap:round;stroke-linejoin:round;stroke-width:1.17749px;transform-origin:168.68px 308.571px" id="eldn7at70din" class="animable"/><path d="M130.3 250.9s7.9 26 13 33 19.05 13.94 29.27 13.47 18.58-10.68 20.44-20.9.46-33.45.46-33.45-1.85-10.22-9.75-23.69-47.85-2.33-52 7.89-1.42 23.68-1.42 23.68Z" style="fill:#fff;stroke:#263238;stroke-linecap:round;stroke-linejoin:round;stroke-width:1.17749px;transform-origin:161.697px 255.255px" id="el1ds8trw8ril" class="animable"/><path d="M161.89 271.34s4.65 6.5 10.22-.47" style="fill:none;stroke:#263238;stroke-linecap:round;stroke-linejoin:round;stroke-width:1.17749px;transform-origin:167px 272.482px" id="elr5mn5s9r53" class="animable"/><path d="M147.49 261.12s4.18-3.72 9.76 0" style="fill:none;stroke:#263238;stroke-linecap:round;stroke-linejoin:round;stroke-width:1.17749px;transform-origin:152.37px 260.293px" id="el8prkmr81v6j" class="animable"/><path d="M173.51 258.33s1.86-3.72 8.82-3.72" style="fill:none;stroke:#263238;stroke-linecap:round;stroke-linejoin:round;stroke-width:1.17749px;transform-origin:177.92px 256.47px" id="elgsgo2idw52" class="animable"/><path d="M145.17 253.68s2.79-4.64 12.08-5.57" style="fill:none;stroke:#263238;stroke-linecap:round;stroke-linejoin:round;stroke-width:2.35497px;transform-origin:151.21px 250.895px" id="el93p1lyl5eie" class="animable"/><path d="M171.14 252.26s4.52-9.39 12.59-6.47" style="fill:none;stroke:#263238;stroke-linecap:round;stroke-linejoin:round;stroke-width:2.35497px;transform-origin:177.435px 248.744px" id="elz0t3bjhzto" class="animable"/><path d="M172.58 282a2.57 2.57 0 1 1-2.58-2.3 2.45 2.45 0 0 1 2.58 2.3Z" style="fill:#263238;transform-origin:170.024px 282.268px" id="el9hr2jl29qre" class="animable"/><path d="M157.53 262.51a1.41 1.41 0 1 1-1.41-1.4 1.41 1.41 0 0 1 1.41 1.4Z" style="fill:#263238;transform-origin:156.12px 262.52px" id="elz7xd7r8mde" class="animable"/><path d="M182 257.26a1.41 1.41 0 1 1-1.4-1.41 1.4 1.4 0 0 1 1.4 1.41Z" style="fill:#263238;transform-origin:180.59px 257.26px" id="elmy1i2i8ny" class="animable"/><path d="M152.14 194.69h-16.26c-9.29 0-21.37 24.62-20.91 36.23s10.69 19.05 13.48 20.44 7.89 3.72 7.89 2.32 5.58-12.54 5.58-12.54-1.4 6.51 2.32 6.51 15.33-12.08 15.33-12.08.47 9.75 4.18 9.75 11.62-14.4 11.62-14.4l8.36 9.29 2.79-5.57s3.25 13 6 13 5.11-6.51 6.51-13 4.18-17.19-.47-26.95-18.11-18.58-29.26-18.58-17.16 5.58-17.16 5.58Z" style="fill:#263238;stroke:#263238;stroke-linecap:round;stroke-linejoin:round;stroke-width:1.17749px;transform-origin:158.049px 221.611px" id="el3lvpau204kj" class="animable"/><path d="M146.39 198.4s-11.44 1.32-16.72 4.84a19.32 19.32 0 0 0-7 7.92l11.44-5.28s-7.48 5.72-8.36 8.36a72.24 72.24 0 0 0-1.75 8.36l7-2.2s-2.91 2.44-2.64 4.84 1.32 7.92 1.32 7.92l8.36-7.92 2.2 5.72 7-5.72.44 4.4 4.84-6.6 4 4 2.64-4.84s2.2 2.2 3.08-3.08 1.32-7.48 1.32-7.48l4.84 5.72 1.76 7.48 1.32-7.92 4 3.52 1.32-6.6 4.84 2.64 1.76-6.16 10.56 3.52s-3.08-11-5.72-14.08-15.4-4.4-15.4-4.4l-1.32-2.2s-15 3.08-16.72 4a20 20 0 0 0-4 3.08" style="fill:none;stroke:#6b6b6b;stroke-linecap:round;stroke-linejoin:round;stroke-width:1.17749px;transform-origin:158.315px 213.16px" id="elzl6xet38zgs" class="animable"/><path d="M118.87 277.93a10.17 10.17 0 0 1-2.61-6.72c0-4.1 4.48-13 5.6-13s3.35 2.23 3.35 2.23-1.86 9-2.61 12.32a9.1 9.1 0 0 1-3.73 5.17Z" style="fill:#fff;stroke:#263238;stroke-linecap:round;stroke-linejoin:round;stroke-width:1.17749px;transform-origin:120.735px 268.07px" id="el56hky1l31ju" class="animable"/><path d="M121.48 281.66s-3.73-4.48-3.73-6.34 6-14.93 7.46-14.93 6 1.87 7.09 2.62.75 4.47.75 7.09-6.72 14.17-6.72 14.17Z" style="fill:#fff;stroke:#263238;stroke-linecap:round;stroke-linejoin:round;stroke-width:1.17749px;transform-origin:125.425px 272.33px" id="eltmom0dwy2f" class="animable"/><path d="M129.32 262.26s-9.33 16.79-7.84 19.4 16.42 18.66 16.42 18.66-42.54 63.43-46.64 69.77-4.85 15.67-3 20.9 13.06 10.07 20.9 9.7 13.8-10.08 16-19 22.44-74.69 24.31-79.88 4.47-9.33 1.86-11.94-12.68-12.31-12.68-12.31 3-2.61 2.61-5.6-6.72-8.96-11.94-9.7Z" style="fill:#fff;transform-origin:119.868px 331.485px" id="elztif4f1bnjj" class="animable"/><g style="clip-path:url(#freepik--clip-path-3--inject-184);transform-origin:122.051px 339.285px" id="elpgpswrzq6mn" class="animable"><path d="M125.21 381.66c2.24-9 22.39-74.63 24.26-79.85s4.47-9.33 1.86-11.94c-2.35-2.35-10.74-10.44-12.38-12h-.06c1.46 1.91 9.18 12.25 8.38 18.23-.88 6.6-34.76 86.25-39.16 91.53-3.37 4-12.38 6.52-16.44 7.47a29.74 29.74 0 0 0 17.5 5.6c7.83-.39 13.83-10.09 16.04-19.04Z" style="fill:#c53f3f;transform-origin:122.051px 339.285px" id="el2bxjyggph1c" class="animable"/><path d="M125.21 381.66c2.24-9 22.39-74.63 24.26-79.85s4.47-9.33 1.86-11.94c-2.35-2.35-10.74-10.44-12.38-12h-.06c1.46 1.91 9.18 12.25 8.38 18.23-.88 6.6-34.76 86.25-39.16 91.53-3.37 4-12.38 6.52-16.44 7.47a29.74 29.74 0 0 0 17.5 5.6c7.83-.39 13.83-10.09 16.04-19.04Z" style="fill:#fff;opacity:.7;transform-origin:122.051px 339.285px" class="animable" id="elyh1848jc5k"/></g><path d="M129.32 262.26s-9.33 16.79-7.84 19.4 16.42 18.66 16.42 18.66-42.54 63.43-46.64 69.77-4.85 15.67-3 20.9 13.06 10.07 20.9 9.7 13.8-10.08 16-19 22.44-74.69 24.31-79.88 4.47-9.33 1.86-11.94-12.68-12.31-12.68-12.31 3-2.61 2.61-5.6-6.72-8.96-11.94-9.7Z" style="fill:none;stroke:#263238;stroke-linecap:round;stroke-linejoin:round;stroke-width:1.17749px;transform-origin:119.868px 331.485px" id="eluwll60uinva" class="animable"/><path d="m134.91 270.47-1.86 4.53 5.6 2.61.24.3" style="fill:none;stroke:#263238;stroke-linecap:round;stroke-linejoin:round;stroke-width:1.17749px;transform-origin:135.97px 274.19px" id="eldusprl8oxxd" class="animable"/><path d="M246.1 339.5s3.36-5.6 7.47-7.09 20.15-3 26.49-.75 10.07 10.45 11.19 14.92.75 10.83-3 14.18-8.58 2.62-13.81 1.12-15.67-7.46-21.27-10.82-6.69-9.33-7.07-11.56Z" style="fill:#263238;stroke:#263238;stroke-linecap:round;stroke-linejoin:round;stroke-width:1.17749px;transform-origin:268.953px 346.828px" id="elie53bffxgfe" class="animable"/><path d="M193.87 333.15s-29.48 24.26-33.58 26.49-2.24 6.35-.75 7.84 11.19 10.45 15.67 13.43 10.82-2.24 12.31-3-.37-4.11-.37-4.11 11.57-6.34 13.43-12.31a67.4 67.4 0 0 0 2.24-14.18s47 19 58.21 23.13 18.28 4.48 23.51-.74 5.59-16.05 3-21.64-19-10.82-26.49-10.82-60.45-6.35-63.8-5.23Z" style="fill:#fff;transform-origin:223.455px 356.849px" id="eljyyv0td62jc" class="animable"/><g style="clip-path:url(#freepik--clip-path-4--inject-184);transform-origin:229.395px 360.513px" id="el0gy4sac1ghvi" class="animable"><path d="M284.54 369.72a15.59 15.59 0 0 0 3.78-7.13c-19.63-1.21-77.21-23-83-23.38-6.6-.44-7.48 9.68-14.09 18s-10.52 10.6-16.23 11.48c-3.9.6-4.52 5.5-4.53 8.56 1.8 1.49 3.49 2.82 4.75 3.66 4.48 3 10.82-2.24 12.31-3s-.37-4.11-.37-4.11 11.57-6.34 13.43-12.31a67.4 67.4 0 0 0 2.24-14.18s47 19 58.21 23.13 18.27 4.5 23.5-.72Z" style="fill:#c53f3f;transform-origin:229.395px 360.513px" id="elx0o5706suee" class="animable"/><path d="M284.54 369.72a15.59 15.59 0 0 0 3.78-7.13c-19.63-1.21-77.21-23-83-23.38-6.6-.44-7.48 9.68-14.09 18s-10.52 10.6-16.23 11.48c-3.9.6-4.52 5.5-4.53 8.56 1.8 1.49 3.49 2.82 4.75 3.66 4.48 3 10.82-2.24 12.31-3s-.37-4.11-.37-4.11 11.57-6.34 13.43-12.31a67.4 67.4 0 0 0 2.24-14.18s47 19 58.21 23.13 18.27 4.5 23.5-.72Z" style="fill:#fff;opacity:.7;transform-origin:229.395px 360.513px" class="animable" id="ell0k1kt7dzr"/></g><path d="M193.87 333.15s-29.48 24.26-33.58 26.49-2.24 6.35-.75 7.84 11.19 10.45 15.67 13.43 10.82-2.24 12.31-3-.37-4.11-.37-4.11 11.57-6.34 13.43-12.31a67.4 67.4 0 0 0 2.24-14.18s47 19 58.21 23.13 18.28 4.48 23.51-.74 5.59-16.05 3-21.64-19-10.82-26.49-10.82-60.45-6.35-63.8-5.23Z" style="fill:none;stroke:#263238;stroke-linecap:round;stroke-linejoin:round;stroke-width:1.17749px;transform-origin:223.455px 356.849px" id="elr33l2vssewm" class="animable"/><path style="fill:#fff;stroke:#263238;stroke-linecap:round;stroke-linejoin:round;stroke-width:1.17749px;transform-origin:184.725px 374.94px" id="el8jmxypt8h6" class="animable" d="m187.15 373.82-4.85 2.24"/><path style="fill:#263238;stroke:#263238;stroke-linecap:round;stroke-linejoin:round;stroke-width:1.17749px;transform-origin:204.505px 343.785px" id="elelgrly8hqmm" class="animable" d="m200.96 340.99 1.86 6.34 5.23 2.61-2.99-12.31-4.1 3.36z"/><ellipse cx="200.4" cy="335.58" rx="8.77" ry="6.9" style="fill:#fff;stroke:#263238;stroke-linecap:round;stroke-linejoin:round;stroke-width:1.17749px;transform-origin:200.4px 335.58px" id="elmjnmf0s71m" class="animable"/><path style="fill:none;stroke:#263238;stroke-linecap:round;stroke-linejoin:round;stroke-width:1.17749px;transform-origin:241.97px 400.66px" id="elj1abcq00ul" class="animable" d="M40.61 400.66h402.72"/></g><defs><filter id="active" height="200%"><feMorphology in="SourceAlpha" result="DILATED" operator="dilate" radius="2"/><feFlood flood-color="#32DFEC" flood-opacity="1" result="PINK"/><feComposite in="PINK" in2="DILATED" operator="in" result="OUTLINE"/><feMerge><feMergeNode in="OUTLINE"/><feMergeNode in="SourceGraphic"/></feMerge></filter><filter id="hover" height="200%"><feMorphology in="SourceAlpha" result="DILATED" operator="dilate" radius="2"/><feFlood flood-color="red" flood-opacity=".5" result="PINK"/><feComposite in="PINK" in2="DILATED" operator="in" result="OUTLINE"/><feMerge><feMergeNode in="OUTLINE"/><feMergeNode in="SourceGraphic"/></feMerge><feColorMatrix values="0 0 0 0 0 0 1 0 0 0 0 0 0 0 0 0 0 0 1 0"/></filter></defs><defs><clipPath id="freepik--clip-path--inject-184"><path d="M153.94 286.51S88.65 306.29 88.65 310s-1.87 76.86-.38 81 13.81 8.2 20.53 8.2v1.5h143.27L245 361.14s40.3-1.5 41-4.48-35.35-62.66-38.71-64.54-54.54-7.47-60.51-7.47-18.66-2.65-32.84 1.86Z" style="fill:#c53f3f;stroke:#263238;stroke-linecap:round;stroke-linejoin:round;stroke-width:1.177485466003418px"/></clipPath><clipPath id="freepik--clip-path-2--inject-184"><path d="M148.72 287.26s5.22 13.06 10.82 24.25 19 26.87 22.39 23.51 6.71-29.48 6.71-35.45v-17.91s-10.44 8.58-18.65 8.58-21.27-2.98-21.27-2.98Z" style="fill:#fff;stroke:#263238;stroke-linecap:round;stroke-linejoin:round;stroke-width:1.177485466003418px"/></clipPath><clipPath id="freepik--clip-path-3--inject-184"><path d="M129.32 262.26s-9.33 16.79-7.84 19.4 16.42 18.66 16.42 18.66-42.54 63.43-46.64 69.77-4.85 15.67-3 20.9 13.06 10.07 20.9 9.7 13.8-10.08 16-19 22.44-74.69 24.31-79.88 4.47-9.33 1.86-11.94-12.68-12.31-12.68-12.31 3-2.61 2.61-5.6-6.72-8.96-11.94-9.7Z" style="fill:#fff;stroke:#263238;stroke-linecap:round;stroke-linejoin:round;stroke-width:1.177485466003418px"/></clipPath><clipPath id="freepik--clip-path-4--inject-184"><path d="M193.87 333.15s-29.48 24.26-33.58 26.49-2.24 6.35-.75 7.84 11.19 10.45 15.67 13.43 10.82-2.24 12.31-3-.37-4.11-.37-4.11 11.57-6.34 13.43-12.31a67.4 67.4 0 0 0 2.24-14.18s47 19 58.21 23.13 18.28 4.48 23.51-.74 5.59-16.05 3-21.64-19-10.82-26.49-10.82-60.45-6.35-63.8-5.23Z" style="fill:#fff;stroke:#263238;stroke-linecap:round;stroke-linejoin:round;stroke-width:1.177485466003418px"/></clipPath></defs></svg>